<?xml version="1.0" encoding="utf-8"?>
<!-- Generator: Adobe Illustrator 16.0.0, SVG Export Plug-In . SVG Version: 6.00 Build 0)  -->
<!DOCTYPE svg PUBLIC "-//W3C//DTD SVG 1.1//EN" "http://www.w3.org/Graphics/SVG/1.1/DTD/svg11.dtd">
<svg version="1.1" id="Layer_1" xmlns="http://www.w3.org/2000/svg" xmlns:xlink="http://www.w3.org/1999/xlink" x="0px" y="0px"
	 width="50px" height="50px" viewBox="0 0 50 50" enable-background="new 0 0 50 50" xml:space="preserve">
<g>
	<path d="M39.984,41.208c0-1.399-1.61-3.286-3.783-3.836c0.907-0.612,1.533-1.817,1.533-2.902c0-1.533-1.242-2.775-2.772-2.775
		c-1.534,0-2.774,1.242-2.774,2.775c0,1.085,0.627,2.29,1.533,2.902c-2.172,0.551-3.783,2.437-3.783,3.836
		C29.938,42.859,39.984,42.859,39.984,41.208z"/>
	<path d="M16.582,13.833c1.239,0,2.247-1.442,2.247-2.682c0-1.244-1.008-2.249-2.247-2.249c-1.242,0-2.25,1.005-2.25,2.249
		C14.332,12.391,15.34,13.833,16.582,13.833z"/>
	<path d="M40.154,20.443v-9.517c0-0.875-0.712-1.586-1.587-1.586h-6.146v-1.19c0-0.329-0.267-0.595-0.596-0.595
		c-0.328,0-0.595,0.267-0.595,0.595v1.19h-6.146c-0.874,0-1.586,0.711-1.586,1.586v4.873l-3.079-1.027
		c-0.193-0.068-1.919-0.671-3.509-0.75l-0.213,0.425h-0.004l0.599,4.663l-0.711,1.244l-0.712-1.244l0.598-4.663h-0.005l-0.212-0.425
		c-1.649,0.083-3.448,0.729-3.528,0.757c-0.033,0.013-0.054,0.038-0.084,0.052c-0.054,0.027-0.102,0.054-0.149,0.091
		c-0.048,0.034-0.085,0.072-0.123,0.114c-0.037,0.044-0.069,0.086-0.097,0.135c-0.032,0.053-0.055,0.104-0.074,0.164
		c-0.01,0.031-0.031,0.054-0.039,0.086l-1.422,6.401c-0.106,0.48,0.195,0.955,0.675,1.063c0.065,0.012,0.128,0.018,0.194,0.018
		c0.408,0,0.775-0.28,0.865-0.694l1.314-5.907c0.092-0.029,0.195-0.06,0.31-0.092v6.071l-0.709,8.799
		c-0.027,0.341,0.12,0.645,0.354,0.859c-0.966,0.434-1.642,1.4-1.642,2.529c0,1.085,0.626,2.29,1.533,2.902
		c-2.173,0.551-3.783,2.437-3.783,3.836c0,1.652,10.046,1.652,10.046,0c0-1.399-1.61-3.286-3.783-3.836
		c0.908-0.612,1.534-1.817,1.534-2.902c0-1.375-1.001-2.509-2.314-2.729c0.095-0.145,0.168-0.304,0.183-0.489l0.639-7.952
		c0.133,0.057,0.278,0.091,0.433,0.091c0.152,0,0.297-0.034,0.429-0.091l0.64,7.952c0.047,0.56,0.513,0.982,1.064,0.982
		c0.027,0,0.057-0.001,0.085-0.003c0.587-0.047,1.026-0.561,0.979-1.148l-0.708-8.799V16.21c0.451,0.128,0.756,0.237,0.764,0.241
		c0.006,0.002,0.009,0.002,0.012,0.003c0.005,0.001,0.007,0.002,0.01,0.003l3.643,1.215v2.771c0,0.875,0.712,1.586,1.586,1.586
		h2.887l-2.533,9.454c-0.023,0.089-0.021,0.177-0.005,0.262c-0.168-0.032-0.341-0.052-0.519-0.052c-1.532,0-2.774,1.242-2.774,2.775
		c0,1.085,0.627,2.29,1.535,2.902c-2.174,0.551-3.784,2.437-3.784,3.836c0,1.652,10.046,1.652,10.046,0
		c0-1.399-1.61-3.286-3.783-3.836c0.908-0.612,1.534-1.817,1.534-2.902c0-0.998-0.53-1.865-1.32-2.354
		c0.104-0.077,0.185-0.188,0.221-0.323l2.615-9.762h2.027v6.918c0,0.328,0.267,0.595,0.595,0.595c0.329,0,0.596-0.267,0.596-0.595
		v-6.918h2.026l2.615,9.762c0.071,0.266,0.312,0.441,0.575,0.441c0.051,0,0.103-0.007,0.154-0.021
		c0.316-0.085,0.505-0.411,0.421-0.729l-2.533-9.454h2.887C39.442,22.029,40.154,21.318,40.154,20.443z M25.085,21.236
		c-0.438,0-0.794-0.356-0.794-0.793v-2.535c0.038,0.005,0.076,0.019,0.114,0.019c0.372,0,0.72-0.236,0.844-0.607
		c0.154-0.467-0.097-0.97-0.563-1.125l-0.396-0.132v-5.137c0-0.438,0.355-0.793,0.794-0.793h13.482c0.438,0,0.794,0.355,0.794,0.793
		v9.517c0,0.437-0.355,0.793-0.794,0.793H25.085z"/>
</g>
</svg>
